PathFileType	4	(X/Y/Z)	c:/Users/goper/Files/vsCode/490R/osim_files/C12/C12_Static.trc
DataRate	CameraRate	NumFrames	NumMarkers	Units                	OrigDataRate	OrigDataStartFrame	OrigNumFrames
120.00	120.00	6	36	mm	120.0	610	812
                Frame#	Time	LPSIS			LASIS			LTH1			LTH2			LTH3			LTH4			LLFE			LMFE			LSH1			LSH2			LSH3			LSH4			LLMAL			LMMAL			LCAL			LMTP5			LTOE			LMTP1			RPSIS			RASIS			RTH1			RTH2			RTH3			RTH4			RLFE			RMFE			RSH1			RSH2			RSH3			RSH4			RLMAL			RMMAL			RCAL			RMTP1			RTOE			RMTP5		
		X1	Y1	Z1	X2	Y2	Z2	X3	Y3	Z3	X4	Y4	Z4	X5	Y5	Z5	X6	Y6	Z6	X7	Y7	Z7	X8	Y8	Z8	X9	Y9	Z9	X10	Y10	Z10	X11	Y11	Z11	X12	Y12	Z12	X13	Y13	Z13	X14	Y14	Z14	X15	Y15	Z15	X16	Y16	Z16	X17	Y17	Z17	X18	Y18	Z18	X19	Y19	Z19	X20	Y20	Z20	X21	Y21	Z21	X22	Y22	Z22	X23	Y23	Z23	X24	Y24	Z24	X25	Y25	Z25	X26	Y26	Z26	X27	Y27	Z27	X28	Y28	Z28	X29	Y29	Z29	X30	Y30	Z30	X31	Y31	Z31	X32	Y32	Z32	X33	Y33	Z33	X34	Y34	Z34	X35	Y35	Z35	X36	Y36	Z36

610	5.07500	-344.61996	1064.00916	433.10300	-165.96126	1031.10266	368.74545	-295.85419	762.83881	303.69513	-295.00912	718.26514	301.79147	-234.57634	760.81433	293.18204	-241.80783	716.07349	292.79553	-283.43753	535.07483	320.60797	-271.00348	513.42981	444.07092	-350.22589	446.74554	296.73233	-347.22327	400.62576	282.91769	-289.56607	445.73367	295.33829	-295.45169	399.49475	285.34161	-311.78299	103.06660	285.23785	-290.17087	103.20888	360.86105	-366.84015	72.63008	326.38846	-180.84360	40.04527	239.30681	-121.98054	70.16526	301.07593	-146.93491	41.66928	346.20020	-353.47861	1061.92847	543.22992	-169.89229	1024.65234	630.11603	-287.17880	763.14355	699.75891	-285.59946	717.39044	695.31604	-224.01335	758.20837	698.69391	-233.17041	711.04211	695.68726	-300.69662	536.50024	672.89044	-288.74805	520.45190	540.22858	-370.05972	442.49060	697.48700	-367.02011	400.37982	708.93488	-307.51700	438.94159	698.32190	-315.35324	398.28528	711.15393	-331.18323	102.50732	701.54633	-307.04266	112.99728	621.88739	-395.59070	63.71647	658.18420	-178.10129	47.31395	632.57373	-140.27174	67.14088	668.56732	-178.30368	40.97910	739.61060
611	5.08333	-344.64066	1064.02441	433.10233	-165.99026	1031.13660	368.73111	-295.82849	762.83276	303.68234	-295.00323	718.28729	301.77423	-234.55531	760.82355	293.18176	-241.78233	716.09418	292.79611	-283.39847	535.07758	320.59521	-270.98151	513.47491	444.05103	-350.21103	446.75641	296.71384	-347.20929	400.64603	282.91006	-289.56116	445.74765	295.33353	-295.45239	399.50040	285.33386	-311.77582	103.07787	285.21918	-290.25696	103.24889	360.82812	-366.87753	72.73119	326.35287	-180.86740	40.07183	239.27534	-122.01745	70.22123	301.04050	-146.99690	41.68410	346.19849	-353.49741	1061.95068	543.21155	-169.94081	1024.71460	630.11243	-287.30853	763.21228	699.74182	-285.69656	717.49689	695.29443	-224.07631	758.25079	698.68964	-233.23592	711.10791	695.66199	-300.72348	536.56604	672.86157	-288.75964	520.47058	540.20703	-370.12271	442.54959	697.45782	-367.14154	400.46750	708.90192	-307.57678	438.99503	698.30231	-315.38336	398.33063	711.12280	-331.23712	102.56240	701.51288	-307.07852	113.01154	621.88690	-395.59033	63.73278	658.15442	-178.13435	47.34155	632.54169	-140.29308	67.16535	668.55115	-178.33064	41.02822	739.58301
612	5.09167	-344.62958	1064.05176	433.07507	-165.98909	1031.12000	368.74905	-295.78842	762.84680	303.66733	-294.97006	718.30774	301.73203	-234.47148	760.85132	293.18283	-241.72871	716.09827	292.80814	-283.36542	535.10217	320.57764	-270.97644	513.46246	444.05637	-350.17316	446.79346	296.68179	-347.16675	400.67401	282.86481	-289.51785	445.75476	295.32324	-295.41821	399.51971	285.33096	-311.74319	103.11003	285.18561	-290.22882	103.22399	360.83569	-366.86954	72.69161	326.36423	-180.86200	40.06456	239.27655	-122.00697	70.18958	301.06064	-146.99216	41.65396	346.20444	-353.48199	1062.00159	543.15131	-169.94800	1024.68616	630.15179	-287.28015	763.21985	699.74463	-285.67102	717.45953	695.30334	-224.14595	758.20081	698.73492	-233.22610	711.08783	695.67255	-300.74063	536.54358	672.86487	-288.72012	520.48999	540.19928	-370.09763	442.56012	697.45850	-367.14526	400.46765	708.86700	-307.59280	438.96719	698.29834	-315.38708	398.33008	711.11169	-331.19897	102.55860	701.50464	-307.02060	113.01661	621.87335	-395.57370	63.77377	658.11115	-178.09514	47.34359	632.56531	-140.26546	67.17580	668.54828	-178.31902	41.00726	739.57458
613	5.10000	-344.60358	1064.06458	433.04980	-165.93263	1031.08276	368.76096	-295.76413	762.83417	303.63092	-294.93188	718.32727	301.70840	-234.41954	760.85052	293.18649	-241.68941	716.10645	292.81091	-283.30533	535.12177	320.55270	-270.96695	513.46710	444.06186	-350.16006	446.79977	296.67371	-347.10892	400.68637	282.85254	-289.48950	445.76538	295.30328	-295.35211	399.52844	285.32376	-311.73355	103.11705	285.16040	-290.15955	103.18968	360.81879	-366.84918	72.58385	326.45026	-180.81473	40.02386	239.28078	-121.95412	70.13541	301.07593	-146.99728	41.58979	346.21722	-353.46609	1062.01489	543.12665	-169.94786	1024.62781	630.18243	-287.18268	763.18683	699.76404	-285.63147	717.38031	695.30096	-224.13721	758.14282	698.75378	-233.22308	711.03058	695.69647	-300.71991	536.49127	672.87262	-288.68179	520.49060	540.18536	-370.04077	442.54562	697.45569	-367.05594	400.41791	708.87933	-307.57693	438.90567	698.31647	-315.35785	398.28107	711.11090	-331.12579	102.53139	701.51349	-307.01596	113.01583	621.86621	-395.64572	63.71538	658.15784	-178.06372	47.31825	632.56891	-140.23547	67.17086	668.53381	-178.27414	40.99749	739.57751
614	5.10833	-344.58743	1064.06311	433.03366	-165.94514	1031.06934	368.79150	-295.70218	762.85309	303.60382	-294.90036	718.30963	301.70535	-234.37460	760.85455	293.21207	-241.65678	716.10992	292.82562	-283.29404	535.12097	320.56183	-270.99841	513.47003	444.09711	-350.15561	446.78714	296.67938	-347.12131	400.66684	282.86426	-289.48703	445.75903	295.31366	-295.38467	399.51941	285.33743	-311.73035	103.09075	285.18423	-290.21637	103.19411	360.84247	-366.88361	72.57502	326.45071	-180.83968	40.00852	239.28688	-121.98560	70.13425	301.08505	-147.00925	41.58241	346.23129	-353.42975	1061.97205	543.12311	-169.95837	1024.62317	630.22583	-287.23602	763.18512	699.77380	-285.66165	717.37561	695.32635	-224.19962	758.13385	698.79303	-233.28056	711.00543	695.73517	-300.75272	536.47821	672.90656	-288.67880	520.49274	540.18103	-370.06458	442.51770	697.46704	-367.08395	400.39404	708.89618	-307.61487	438.89145	698.32440	-315.39630	398.26730	711.13690	-331.13931	102.51727	701.54089	-307.01178	112.99964	621.86438	-395.65604	63.71306	658.19604	-178.09636	47.29620	632.57745	-140.26167	67.14748	668.55273	-178.31503	40.97497	739.60040
615	5.11667	-344.51675	1063.98926	433.06070	-165.87817	1031.10376	368.78107	-295.71667	762.86035	303.63217	-294.89432	718.28717	301.73230	-234.36754	760.84863	293.20712	-241.65999	716.09204	292.83673	-283.31815	535.09991	320.58636	-271.01111	513.47662	444.12637	-350.17395	446.74274	296.70963	-347.15524	400.62637	282.90262	-289.50906	445.75027	295.32336	-295.39929	399.50360	285.33279	-311.75003	103.05357	285.19965	-290.16483	103.20285	360.84344	-366.81485	72.58934	326.40585	-180.81967	40.02771	239.28731	-121.95721	70.17033	301.05225	-146.91890	41.64919	346.19913	-353.43481	1061.91223	543.15936	-169.91893	1024.65466	630.23578	-287.21512	763.15857	699.76404	-285.65048	717.38501	695.32440	-224.11243	758.21021	698.77710	-233.22516	711.04913	695.74274	-300.76239	536.50287	672.88855	-288.74399	520.46997	540.18634	-370.07480	442.49295	697.46497	-367.05655	400.36444	708.90350	-307.56506	438.94534	698.31036	-315.39075	398.28506	711.14691	-331.15216	102.50175	701.52295	-307.04010	113.00346	621.86005	-395.62866	63.67590	658.17426	-178.06857	47.30138	632.55096	-140.24338	67.14610	668.54468	-178.30919	40.98914	739.60608
